<svg width="400" height="400" viewBox="0 0 400 400" xmlns="http://www.w3.org/2000/svg">
  <defs>
    <pattern id="whatsapp-pattern" x="0" y="0" width="40" height="40" patternUnits="userSpaceOnUse">
      <!-- Subtle geometric shapes similar to WhatsApp background -->
      <rect width="40" height="40" fill="#f8fafc"/>
      
      <!-- Small dots pattern -->
      <circle cx="10" cy="10" r="0.5" fill="#e2e8f0" opacity="0.3"/>
      <circle cx="30" cy="10" r="0.5" fill="#e2e8f0" opacity="0.3"/>
      <circle cx="20" cy="20" r="0.5" fill="#e2e8f0" opacity="0.3"/>
      <circle cx="10" cy="30" r="0.5" fill="#e2e8f0" opacity="0.3"/>
      <circle cx="30" cy="30" r="0.5" fill="#e2e8f0" opacity="0.3"/>
      
      <!-- Subtle lines -->
      <line x1="0" y1="20" x2="40" y2="20" stroke="#e2e8f0" stroke-width="0.2" opacity="0.2"/>
      <line x1="20" y1="0" x2="20" y2="40" stroke="#e2e8f0" stroke-width="0.2" opacity="0.2"/>
      
      <!-- Small geometric shapes -->
      <rect x="5" y="5" width="2" height="2" fill="#cbd5e1" opacity="0.1" rx="0.5"/>
      <rect x="25" y="15" width="2" height="2" fill="#cbd5e1" opacity="0.1" rx="0.5"/>
      <rect x="15" y="25" width="2" height="2" fill="#cbd5e1" opacity="0.1" rx="0.5"/>
      <rect x="35" y="5" width="2" height="2" fill="#cbd5e1" opacity="0.1" rx="0.5"/>
      
      <!-- Tiny triangles -->
      <polygon points="8,8 10,8 9,6" fill="#e2e8f0" opacity="0.15"/>
      <polygon points="28,28 30,28 29,26" fill="#e2e8f0" opacity="0.15"/>
      <polygon points="18,38 20,38 19,36" fill="#e2e8f0" opacity="0.15"/>
      <polygon points="38,18 40,18 39,16" fill="#e2e8f0" opacity="0.15"/>
    </pattern>
    
    <!-- Gradient overlay for depth -->
    <radialGradient id="subtle-gradient" cx="50%" cy="50%" r="50%">
      <stop offset="0%" stop-color="#ffffff" stop-opacity="0.05"/>
      <stop offset="100%" stop-color="#f1f5f9" stop-opacity="0.02"/>
    </radialGradient>
  </defs>
  
  <!-- Base pattern -->
  <rect width="100%" height="100%" fill="url(#whatsapp-pattern)"/>
  
  <!-- Subtle gradient overlay -->
  <rect width="100%" height="100%" fill="url(#subtle-gradient)"/>
  
  <!-- Additional floating elements for visual interest -->
  <g opacity="0.08">
    <!-- Scattered small circles -->
    <circle cx="80" cy="120" r="1" fill="#94a3b8"/>
    <circle cx="320" cy="80" r="1.5" fill="#94a3b8"/>
    <circle cx="160" cy="280" r="1" fill="#94a3b8"/>
    <circle cx="280" cy="200" r="1.2" fill="#94a3b8"/>
    <circle cx="40" cy="360" r="1" fill="#94a3b8"/>
    <circle cx="360" cy="320" r="1.3" fill="#94a3b8"/>
    
    <!-- Small diamond shapes -->
    <polygon points="200,60 202,62 200,64 198,62" fill="#cbd5e1"/>
    <polygon points="120,180 122,182 120,184 118,182" fill="#cbd5e1"/>
    <polygon points="300,140 302,142 300,144 298,142" fill="#cbd5e1"/>
    <polygon points="60,240 62,242 60,244 58,242" fill="#cbd5e1"/>
    
    <!-- Subtle curved lines -->
    <path d="M100,100 Q150,120 200,100" stroke="#e2e8f0" stroke-width="0.5" fill="none"/>
    <path d="M250,200 Q300,220 350,200" stroke="#e2e8f0" stroke-width="0.5" fill="none"/>
    <path d="M50,300 Q100,320 150,300" stroke="#e2e8f0" stroke-width="0.5" fill="none"/>
  </g>
</svg>